<?xml version="1.0" standalone="no"?>
<!DOCTYPE svg PUBLIC "-//W3C//DTD SVG 20010904//EN"
 "http://www.w3.org/TR/2001/REC-SVG-20010904/DTD/svg10.dtd">
<svg version="1.0" xmlns="http://www.w3.org/2000/svg"
 width="180.000000pt" height="180.000000pt" viewBox="0 0 180.000000 180.000000"
 preserveAspectRatio="xMidYMid meet">
<metadata>
Created by potrace 1.14, written by Peter Selinger 2001-2017
</metadata>
<g transform="translate(0.000000,180.000000) scale(0.100000,-0.100000)"
fill="#000000" stroke="none">
<path d="M0 900 l0 -900 900 0 900 0 0 900 0 900 -900 0 -900 0 0 -900z m430
780 l0 -100 -205 0 -205 0 0 100 0 100 205 0 205 0 0 -100z m450 0 l0 -100
-205 0 -205 0 0 100 0 100 205 0 205 0 0 -100z m450 0 l0 -100 -205 0 -205 0
0 100 0 100 205 0 205 0 0 -100z m450 0 l0 -100 -205 0 -205 0 0 100 0 100
205 0 205 0 0 -100z m-1350 -490 l0 -100 -205 0 -205 0 0 100 0 100 205 0 205
0 0 -100z m450 0 l0 -100 -205 0 -205 0 0 100 0 100 205 0 205 0 0 -100z m450
0 l0 -100 -205 0 -205 0 0 100 0 100 205 0 205 0 0 -100z m450 0 l0 -100 -205
0 -205 0 0 100 0 100 205 0 205 0 0 -100z m-1173 -507 c55 -36 64 -120 17
-167 -69 -68 -184 -18 -184 80 0 28 8 44 34 70 39 39 89 46 133 17z m873 -468
l0 -65 -245 0 -245 0 0 65 0 65 245 0 245 0 0 -65z"/>
</g>
</svg>
